HIERARCHY
ROOT Hips
{
	OFFSET 0.000000 0.000000 0.000000
	CHANNELS 6 Xposition Yposition Zposition Xrotation Yrotation Zrotation
	JOINT LeftUpLeg_virtual
	{
		OFFSET 0.000000 0.000000 0.000000
		CHANNELS 3 Xrotation Yrotation Zrotation
		JOINT LeftUpLeg
		{
			OFFSET 15.427100 -6.655098 0.678600
			CHANNELS 3 Xrotation Yrotation Zrotation
			JOINT LeftLeg
			{
				OFFSET 4.081073 -39.591068 13.024000
				CHANNELS 3 Xrotation Yrotation Zrotation
				JOINT LeftFoot
				{
					OFFSET -4.081074 -37.707932 -15.979700
					CHANNELS 3 Xrotation Yrotation Zrotation
					JOINT LeftToeBase
					{
						OFFSET 5.346399 -15.068900 20.645000
						CHANNELS 3 Xrotation Yrotation Zrotation
						JOINT LeftToe_End
						{
							OFFSET 2.754700 0.931300 11.300900
							CHANNELS 3 Xrotation Yrotation Zrotation
							End Site
							{
								OFFSET 0 0 0
							}
						}
					}
				}
			}
		}
	}
	JOINT RightUpLeg_virtual
	{
		OFFSET 0.000000 0.000000 0.000000
		CHANNELS 3 Xrotation Yrotation Zrotation
		JOINT RightUpLeg
		{
			OFFSET -15.569500 -6.655098 0.678600
			CHANNELS 3 Xrotation Yrotation Zrotation
			JOINT RightLeg
			{
				OFFSET -4.081825 -39.591045 13.023800
				CHANNELS 3 Xrotation Yrotation Zrotation
				JOINT RightFoot
				{
					OFFSET 4.081824 -37.707954 -15.979600
					CHANNELS 3 Xrotation Yrotation Zrotation
					JOINT RightToeBase
					{
						OFFSET -5.346400 -15.068900 20.645000
						CHANNELS 3 Xrotation Yrotation Zrotation
						JOINT RightToe_End
						{
							OFFSET -2.754700 0.931300 11.300900
							CHANNELS 3 Xrotation Yrotation Zrotation
							End Site
							{
								OFFSET 0 0 0
							}
						}
					}
				}
			}
		}
	}
	JOINT Spine_virtual
	{
		OFFSET 0.000000 0.000000 0.000000
		CHANNELS 3 Xrotation Yrotation Zrotation
		JOINT Spine
		{
			OFFSET -0.279200 12.230698 -2.892100
			CHANNELS 3 Xrotation Yrotation Zrotation
			JOINT Spine1
			{
				OFFSET -0.232667 10.192268 -1.242267
				CHANNELS 3 Xrotation Yrotation Zrotation
				JOINT Spine1_split
				{
					OFFSET -0.232667 10.192268 -1.242267
					CHANNELS 3 Xrotation Yrotation Zrotation
					JOINT Spine2
					{
						OFFSET -0.232667 10.192268 -1.242267
						CHANNELS 3 Xrotation Yrotation Zrotation
						JOINT Neck_virtual
						{
							OFFSET 0.000000 0.000000 0.000000
							CHANNELS 3 Xrotation Yrotation Zrotation
							JOINT Neck
							{
								OFFSET -0.418800 17.814194 8.416900
								CHANNELS 3 Xrotation Yrotation Zrotation
								JOINT Head
								{
									OFFSET 0.000000 7.031097 3.806800
									CHANNELS 3 Xrotation Yrotation Zrotation
									JOINT HeadTop_End
									{
										OFFSET 0.000000 24.646606 12.978600
										CHANNELS 3 Xrotation Yrotation Zrotation
										End Site
										{
											OFFSET 0 0 0
										}
									}
								}
							}
						}
						JOINT LeftShoulder_virtual
						{
							OFFSET 0.000000 0.000000 0.000000
							CHANNELS 3 Xrotation Yrotation Zrotation
							JOINT LeftShoulder
							{
								OFFSET 8.476499 7.247704 -3.868750
								CHANNELS 3 Xrotation Yrotation Zrotation
								JOINT LeftShoulder_split
								{
									OFFSET 8.476499 7.247704 -3.868750
									CHANNELS 3 Xrotation Yrotation Zrotation
									JOINT LeftArm
									{
										OFFSET 9.308998 -2.777710 0.208600
										CHANNELS 3 Xrotation Yrotation Zrotation
										JOINT LeftForeArm
										{
											OFFSET 29.972298 0.000000 0.000000
											CHANNELS 3 Xrotation Yrotation Zrotation
											JOINT LeftHand
											{
												OFFSET 26.026505 0.000000 0.000000
												CHANNELS 3 Xrotation Yrotation Zrotation
												End Site
												{
													OFFSET 0 0 0
												}
											}
										}
									}
								}
							}
						}
						JOINT RightShoulder_virtual
						{
							OFFSET 0.000000 0.000000 0.000000
							CHANNELS 3 Xrotation Yrotation Zrotation
							JOINT RightShoulder
							{
								OFFSET -7.570500 7.247704 -3.868750
								CHANNELS 3 Xrotation Yrotation Zrotation
								JOINT RightShoulder_split
								{
									OFFSET -7.570500 7.247704 -3.868750
									CHANNELS 3 Xrotation Yrotation Zrotation
									JOINT RightArm
									{
										OFFSET -9.308998 -2.777710 0.208500
										CHANNELS 3 Xrotation Yrotation Zrotation
										JOINT RightForeArm
										{
											OFFSET -29.972300 0.000000 0.000000
											CHANNELS 3 Xrotation Yrotation Zrotation
											JOINT RightHand
											{
												OFFSET -26.026505 0.000000 0.000000
												CHANNELS 3 Xrotation Yrotation Zrotation
												End Site
												{
													OFFSET 0 0 0
												}
											}
										}
									}
								}
							}
						}
					}
				}
			}
		}
	}
}
MOTION
Frames: 11
Frame Time: 0.03333333
-0.272012 76.848549 -3.951677 0.000000 0.000000 0.000000 -14.365384 2.055383 0.469840 -18.521456 -4.188572 17.910880 57.302794 -1.849329 -0.036783 -22.433331 -0.195743 -13.902990 -1.825054 -0.699131 0.582858 0.000000 0.000000 0.000000 -14.922172 1.826777 0.575317 -10.667227 -4.892184 -20.380236 53.259609 3.304670 3.378070 -28.319204 -5.831939 11.394996 0.711587 0.484347 -0.198470 0.000000 0.000000 0.000000 -14.546949 0.589737 0.083215 18.393484 0.736415 2.338566 4.395877 -0.109602 0.195456 2.177903 3.516828 -0.189112 0.000000 0.000000 0.000000 5.430411 -0.214191 0.624899 -12.427389 -1.672449 1.034018 -17.512072 -1.737944 -0.089791 0.000000 0.000000 0.000000 5.773066 -0.091093 0.940191 4.289039 -9.497509 -3.882506 -4.293746 -0.367111 -4.104680 -8.517714 -15.476691 -56.622316 67.663208 -60.285169 68.708438 0.000000 0.000000 0.000000 5.674943 -0.240514 0.088746 11.067707 -7.141630 17.503504 2.263316 1.278636 1.076191 -23.764699 17.755830 58.720352 88.004515 60.167915 -81.683113 0.000000 0.000000 0.000000 
-0.385670 76.937828 -3.806200 0.000000 0.000000 0.000000 -14.439122 2.176359 0.400544 -18.495751 -4.421848 17.957433 57.232105 -1.874588 -0.078909 -22.476636 -0.248517 -13.918324 -1.744377 -0.682021 0.621142 0.000000 0.000000 0.000000 -15.069313 2.127317 0.524169 -10.381470 -4.836480 -20.300668 53.485784 3.358012 3.362985 -28.443486 -5.824138 11.281505 0.969728 0.517321 -0.219556 0.000000 0.000000 0.000000 -14.654386 0.884411 0.041093 18.254546 0.640638 2.246737 4.470400 -0.156250 0.234469 2.061050 3.854798 0.071604 0.000000 0.000000 0.000000 5.477243 -0.275863 0.672203 -12.582823 -1.588789 0.839508 -17.864963 -1.340291 -0.333143 0.000000 0.000000 0.000000 5.804115 -0.110999 0.986955 4.382438 -9.505049 -3.619669 -3.813143 -0.601235 -4.560084 -10.451489 -15.841968 -58.545287 64.648437 -59.347869 65.812581 0.000000 0.000000 0.000000 5.806016 -0.255253 0.135607 10.810577 -7.133771 17.727278 2.362071 0.535879 2.487606 -23.470009 16.508618 59.331012 86.306667 61.319738 -80.498199 0.000000 0.000000 0.000000 
-0.507997 77.114098 -3.711718 0.000000 0.000000 0.000000 -14.699725 2.318312 0.369114 -18.365819 -4.617529 17.820034 57.180302 -1.869883 -0.099012 -22.608758 -0.212567 -13.990685 -1.642472 -0.621611 0.599783 0.000000 0.000000 0.000000 -15.346945 2.376065 0.456807 -9.817812 -4.915306 -20.257137 53.532475 3.502584 3.281561 -28.463686 -5.935728 11.382875 0.879761 0.522746 -0.244473 0.000000 0.000000 0.000000 -14.945958 1.292519 0.005671 18.345755 0.461864 1.976907 4.665507 -0.100073 0.280337 1.609475 3.443881 0.301252 0.000000 0.000000 0.000000 5.639280 -0.211214 0.619882 -12.122165 -1.457671 0.484034 -18.548950 -1.071078 -0.573713 0.000000 0.000000 0.000000 5.906873 -0.032373 0.992059 4.091656 -10.135097 -3.441450 -3.606672 -1.415307 -3.988063 -10.938988 -15.480941 -58.843118 58.185282 -59.715955 59.701242 0.000000 0.000000 0.000000 6.118256 -0.135198 0.213362 10.370435 -6.849121 17.868712 0.980897 -0.172941 2.574806 -21.342161 17.292183 58.311791 82.863425 64.946281 -78.308378 0.000000 0.000000 0.000000 
-0.606752 77.355156 -3.678684 0.000000 0.000000 0.000000 -15.109692 2.463664 0.379443 -18.104729 -4.686310 17.472956 57.145088 -1.798271 -0.059326 -22.742705 -0.095622 -14.032994 -1.573576 -0.533361 0.518612 0.000000 0.000000 0.000000 -15.685237 2.549531 0.415935 -9.006900 -5.113830 -20.253579 53.347944 3.642396 3.171881 -28.511052 -6.182669 11.480850 0.602065 0.496020 -0.227912 0.000000 0.000000 0.000000 -15.387612 1.631898 0.041945 18.634086 0.204824 1.607123 4.918905 0.021568 0.301443 1.011844 2.563109 0.816995 0.000000 0.000000 0.000000 5.887495 -0.083391 0.502947 -10.900752 -1.259855 -0.027883 -19.180797 -0.826564 -0.887161 0.000000 0.000000 0.000000 6.041896 0.089551 0.964852 3.544888 -11.126303 -3.091558 -3.407112 -2.710062 -2.874446 -9.525237 -14.642916 -56.682299 50.430767 -61.922099 52.309058 0.000000 0.000000 0.000000 6.488572 0.029188 0.285833 9.862198 -6.349614 17.668458 -1.278382 -0.796701 1.842058 -16.743427 19.473114 54.948117 79.852090 70.737052 -76.741472 0.000000 0.000000 0.000000 
-0.668175 77.681885 -3.649464 0.000000 0.000000 0.000000 -15.634074 2.566266 0.472767 -17.682842 -4.615105 16.939486 56.989053 -1.649699 0.046210 -22.779791 0.056933 -13.956017 -1.574800 -0.440978 0.400678 0.000000 0.000000 0.000000 -16.030182 2.723802 0.462324 -8.071511 -5.398844 -20.261527 52.841540 3.652533 3.053902 -28.568692 -6.543686 11.364932 0.418248 0.450834 -0.154929 0.000000 0.000000 0.000000 -15.960940 1.859171 0.166522 19.012356 -0.151760 1.223314 5.132806 0.130240 0.299973 0.132255 1.565544 1.292682 0.000000 0.000000 0.000000 6.207373 0.010409 0.347922 -8.694807 -0.966037 -0.660690 -19.399651 -0.585623 -1.218534 0.000000 0.000000 0.000000 6.176523 0.169568 0.933168 2.933466 -12.215333 -2.318295 -3.401581 -3.413378 -2.101287 -6.284530 -13.684439 -51.819996 41.898194 -66.179397 44.115915 0.000000 0.000000 0.000000 6.846842 0.123095 0.352134 9.342786 -5.795697 16.893735 -2.994734 -0.924176 0.644248 -9.477024 21.584349 49.107110 77.294942 77.829309 -75.205820 0.000000 0.000000 0.000000 
-0.692162 78.141930 -3.668619 0.000000 0.000000 0.000000 -16.159416 2.622230 0.655848 -17.075732 -4.492968 16.277152 56.609605 -1.458605 0.229673 -22.595739 0.156032 -13.770064 -1.643163 -0.368753 0.276410 0.000000 0.000000 0.000000 -16.322643 2.938844 0.635296 -7.188148 -5.709309 -20.272715 51.997185 3.538148 2.979249 -28.513410 -6.922346 11.075955 0.435144 0.409240 -0.035843 0.000000 0.000000 0.000000 -16.571866 1.982444 0.399506 19.359490 -0.602975 0.907211 5.245030 0.143146 0.289460 -0.836153 0.732470 1.323642 0.000000 0.000000 0.000000 6.550834 0.026339 0.223039 -5.341255 -0.614351 -1.343270 -18.951070 -0.369701 -1.583163 0.000000 0.000000 0.000000 6.278414 0.141566 0.928289 2.489681 -13.188574 -1.037418 -3.156087 -3.643914 -1.929643 -1.751702 -12.705118 -44.388850 31.461040 -72.151038 33.931185 0.000000 0.000000 0.000000 7.106931 0.092260 0.426516 8.822070 -5.157136 15.339355 -3.978630 -0.663594 -0.249930 -0.880703 21.684555 41.443344 66.435064 84.858632 -64.659967 0.000000 0.000000 0.000000 
-0.698383 78.708557 -3.765541 0.000000 0.000000 0.000000 -16.636982 2.645511 0.900156 -16.345623 -4.400394 15.614106 55.939505 -1.293925 0.469900 -22.097805 0.166352 -13.572265 -1.719634 -0.331234 0.168705 0.000000 0.000000 0.000000 -16.566325 3.223257 0.922016 -6.440749 -6.008558 -20.332030 50.880183 3.388894 2.934745 -28.215349 -7.210253 10.850655 0.511488 0.396624 0.060526 0.000000 0.000000 0.000000 -17.140534 2.102723 0.677949 19.588190 -1.137443 0.684721 5.338995 0.033334 0.281707 -1.310628 0.842861 1.135263 0.000000 0.000000 0.000000 6.833283 -0.081446 0.195558 -0.800949 -0.261741 -1.995977 -17.865482 -0.151848 -1.866499 0.000000 0.000000 0.000000 6.401343 -0.000995 0.932791 2.400359 -13.937539 0.726107 -2.593079 -4.090179 -2.191572 3.674912 -11.404283 -35.037860 14.673758 -77.963447 17.233336 0.000000 0.000000 0.000000 7.155173 -0.061252 0.555944 8.252660 -4.302615 13.176198 -4.334084 -0.017485 -0.645047 6.040819 19.095040 33.747084 -35.833105 86.963977 37.798130 0.000000 0.000000 0.000000 
-0.629720 79.307465 -3.891626 0.000000 0.000000 0.000000 -17.021482 2.730848 1.139772 -15.590303 -4.406191 15.066422 55.023942 -1.228861 0.703846 -21.341961 0.076458 -13.451821 -1.756155 -0.328052 0.092005 0.000000 0.000000 0.000000 -16.754123 3.515857 1.207063 -5.904228 -6.240078 -20.432202 49.629152 3.286794 2.873731 -27.661445 -7.325184 10.887539 0.520440 0.425270 0.076945 0.000000 0.000000 0.000000 -17.559189 2.294080 0.849952 19.709332 -1.717146 0.586761 5.484683 -0.178148 0.301017 -0.986437 1.424818 0.858004 0.000000 0.000000 0.000000 6.948170 -0.299137 0.303732 4.736390 0.015444 -2.564672 -16.252203 -0.015738 -2.046527 0.000000 0.000000 0.000000 6.551923 -0.247652 0.924847 2.637496 -14.355857 2.641337 -2.189391 -4.451478 -2.256384 8.385082 -9.228858 -25.283373 -12.026777 -80.614141 -9.487101 0.000000 0.000000 0.000000 7.012677 -0.264127 0.733168 7.605598 -3.359474 10.709819 -3.964813 0.740563 -0.651069 8.057467 14.785118 27.314779 -64.801891 82.225547 67.088509 0.000000 0.000000 0.000000 
-0.440674 79.804909 -4.125664 0.000000 0.000000 0.000000 -17.255225 2.895117 1.264951 -15.016395 -4.532552 14.689794 54.117856 -1.253659 0.866326 -20.492511 -0.087880 -13.426249 -1.733910 -0.354446 0.047187 0.000000 0.000000 0.000000 -16.881176 3.781727 1.352477 -5.597720 -6.380823 -20.536396 48.539528 3.281225 2.785219 -27.092456 -7.234875 11.196723 0.448114 0.494619 0.030751 0.000000 0.000000 0.000000 -17.728806 2.529130 0.815065 19.856931 -2.222806 0.643945 5.795567 -0.421254 0.380191 -0.066524 1.935735 0.578893 0.000000 0.000000 0.000000 6.906132 -0.554579 0.559704 10.907911 0.167989 -3.002150 -14.248112 0.055819 -2.091553 0.000000 0.000000 0.000000 6.801136 -0.508727 0.905441 3.041311 -14.338843 4.325041 -1.873389 -4.480058 -1.913479 9.722650 -6.345219 -16.732777 -32.509457 -80.210135 -29.996753 0.000000 0.000000 0.000000 6.828476 -0.434765 0.920095 6.889201 -2.501771 8.432009 -3.217395 1.003073 -0.764265 3.457471 10.722169 22.518647 -74.824879 78.773965 77.322400 0.000000 0.000000 0.000000 
-0.181311 80.020531 -4.452021 0.000000 0.000000 0.000000 -17.338828 3.179160 1.201518 -14.833233 -4.743883 14.517987 53.546303 -1.312346 0.915153 -19.835687 -0.266574 -13.398422 -1.680774 -0.399310 0.024682 0.000000 0.000000 0.000000 -16.966731 4.000811 1.294626 -5.589709 -6.379717 -20.617377 47.953037 3.367537 2.671231 -26.802540 -6.969714 11.656276 0.345686 0.577060 -0.032909 0.000000 0.000000 0.000000 -17.624472 2.799246 0.561748 20.177977 -2.539230 0.823567 6.363894 -0.595487 0.546662 0.915620 1.804002 0.406672 0.000000 0.000000 0.000000 6.896203 -0.757970 0.906707 17.143898 0.173403 -3.287122 -12.115886 -0.012619 -2.004547 0.000000 0.000000 0.000000 7.278234 -0.688824 0.916249 3.417232 -13.909609 5.491597 -2.165491 -3.906973 -1.674734 5.428804 -3.538828 -10.489398 -40.582245 -79.707146 -38.002657 0.000000 0.000000 0.000000 6.800875 -0.535317 1.112234 6.201786 -1.807286 6.874663 -2.411356 0.959190 -1.132072 -8.131695 8.444689 19.774509 -89.408734 76.872167 91.998359 0.000000 0.000000 0.000000 
0.079535 79.776344 -4.863338 0.000000 0.000000 0.000000 -17.264874 3.593571 0.942531 -15.255070 -5.002380 14.540819 53.676537 -1.350369 0.814782 -19.640962 -0.425821 -13.282207 -1.636155 -0.448636 0.008868 0.000000 0.000000 0.000000 -16.984216 4.184976 1.013210 -5.999735 -6.224360 -20.710824 48.236719 3.549504 2.587399 -26.959725 -6.606327 12.111233 0.220929 0.640549 -0.042606 0.000000 0.000000 0.000000 -17.315559 3.079007 0.200015 20.692910 -2.621155 1.080016 7.193250 -0.678877 0.782291 1.815562 1.289245 0.471979 0.000000 0.000000 0.000000 7.172988 -0.838138 1.265190 22.815962 0.037016 -3.367529 -10.005848 -0.332945 -1.788490 0.000000 0.000000 0.000000 7.938693 -0.747974 0.987844 3.547349 -13.190366 5.525537 -2.610245 -3.042251 -1.386765 -5.397625 -1.380898 -7.344607 -49.919278 -81.335347 -47.233371 0.000000 0.000000 0.000000 7.127414 -0.536899 1.266077 5.761143 -1.263663 6.689480 -1.768698 0.725028 -1.592767 -24.761881 8.144423 20.253457 -109.000441 75.151923 111.813031 0.000000 0.000000 0.000000 
